<?xml version="1.0" standalone="no"?>
<!DOCTYPE svg PUBLIC "-//W3C//DTD SVG 20010904//EN"
 "http://www.w3.org/TR/2001/REC-SVG-20010904/DTD/svg10.dtd">
<svg version="1.0" xmlns="http://www.w3.org/2000/svg"
 width="256.000000pt" height="256.000000pt" viewBox="0 0 256.000000 256.000000"
 preserveAspectRatio="xMidYMid meet">

<g transform="translate(0.000000,256.000000) scale(0.100000,-0.100000)"
fill="#000000" stroke="none">
<path d="M1659 1893 l-24 -28 28 24 c25 23 32 31 24 31 -2 0 -14 -12 -28 -27z"/>
<path d="M1805 1885 c-27 -26 -36 -57 -12 -36 10 8 22 4 48 -15 19 -14 42 -23
52 -20 12 3 17 -2 17 -17 0 -18 -2 -20 -11 -7 -9 12 -10 11 -4 -5 3 -11 10
-78 15 -148 5 -71 10 -130 12 -131 36 -29 71 -21 116 27 55 58 27 147 -55 177
-38 14 -40 17 -27 35 8 10 14 40 14 66 0 40 -4 51 -31 73 -41 35 -100 36 -134
1z"/>
<path d="M1442 1835 c0 -16 2 -22 5 -12 2 9 2 23 0 30 -3 6 -5 -1 -5 -18z"/>
<path d="M1483 1853 c15 -2 39 -2 55 0 15 2 2 4 -28 4 -30 0 -43 -2 -27 -4z"/>
<path d="M1610 1850 c0 -5 5 -10 10 -10 6 0 10 5 10 10 0 6 -4 10 -10 10 -5 0
-10 -4 -10 -10z"/>
<path d="M774 1829 c-4 -7 -3 -9 4 -5 5 3 13 0 15 -6 4 -9 6 -10 6 -1 1 17
-16 25 -25 12z"/>
<path d="M1781 1821 c-7 -5 -12 -14 -10 -20 2 -6 10 -2 17 9 14 22 13 23 -7
11z"/>
<path d="M665 1810 c-3 -5 -1 -10 4 -10 6 0 11 5 11 10 0 6 -2 10 -4 10 -3 0
-8 -4 -11 -10z"/>
<path d="M1832 1774 c-7 -8 -8 -14 -3 -14 10 0 25 19 20 25 -2 1 -10 -3 -17
-11z"/>
<path d="M730 1772 c0 -7 10 -17 23 -22 21 -8 21 -9 -6 -9 -16 -1 -26 -5 -23
-10 7 -10 44 -3 52 10 3 5 -3 12 -13 16 -10 4 -21 11 -25 17 -5 7 -8 7 -8 -2z"/>
<path d="M1452 1750 c0 -14 2 -19 5 -12 2 6 2 18 0 25 -3 6 -5 1 -5 -13z"/>
<path d="M1806 1745 c10 -8 23 -15 28 -15 6 0 1 7 -10 15 -10 8 -23 15 -28 15
-6 0 -1 -7 10 -15z"/>
<path d="M1200 1700 c-9 -6 -10 -10 -3 -10 6 0 15 5 18 10 8 12 4 12 -15 0z"/>
<path d="M1462 1690 c0 -14 2 -19 5 -12 2 6 2 18 0 25 -3 6 -5 1 -5 -13z"/>
<path d="M733 1640 c0 -36 2 -50 4 -32 2 17 2 47 0 65 -2 17 -4 3 -4 -33z"/>
<path d="M1060 1676 c0 -2 8 -10 18 -17 15 -13 16 -12 3 4 -13 16 -21 21 -21
13z"/>
<path d="M1812 1640 c0 -14 2 -19 5 -12 2 6 2 18 0 25 -3 6 -5 1 -5 -13z"/>
<path d="M1471 1634 c0 -11 3 -14 6 -6 3 7 2 16 -1 19 -3 4 -6 -2 -5 -13z"/>
<path d="M1091 1608 c-21 -59 -60 -107 -109 -133 -26 -14 -36 -23 -22 -19 44
11 94 58 123 116 27 53 31 56 54 47 13 -5 45 -8 71 -8 47 2 47 2 -13 9 -33 4
-67 11 -76 14 -13 6 -19 -1 -28 -26z"/>
<path d="M1481 1594 c0 -11 3 -14 6 -6 3 7 2 16 -1 19 -3 4 -6 -2 -5 -13z"/>
<path d="M1801 1544 c0 -11 3 -14 6 -6 3 7 2 16 -1 19 -3 4 -6 -2 -5 -13z"/>
<path d="M621 1515 c-1 -39 14 -49 43 -30 25 17 28 17 46 0 24 -21 40 -12 39
23 0 15 -3 20 -6 12 -2 -8 -7 -22 -10 -30 -3 -12 -8 -10 -23 8 -18 22 -20 22
-40 5 -26 -22 -33 -21 -42 9 -5 20 -6 20 -7 3z"/>
<path d="M1823 1325 c2 -77 5 -90 20 -93 15 -3 17 6 16 90 -1 51 -3 85 -6 76
-2 -10 -8 -18 -13 -18 -5 0 -11 8 -13 18 -3 9 -4 -23 -4 -73z m27 -20 c0 -37
-4 -65 -10 -65 -6 0 -10 28 -10 65 0 37 4 65 10 65 6 0 10 -28 10 -65z"/>
<path d="M776 1353 c-2 -15 -8 -47 -11 -70 l-7 -42 -81 -3 c-81 -3 -82 -3 -85
-31 -2 -19 4 -33 20 -47 l23 -19 -60 -55 -60 -54 -28 26 c-51 48 -78 115 -78
194 0 39 -2 68 -5 65 -3 -3 -5 -35 -5 -72 0 -80 22 -133 81 -190 l40 -39 50
49 c35 35 53 46 60 39 8 -8 0 -20 -25 -42 l-35 -31 -48 -371 -48 -371 220 7
c122 3 224 8 227 10 4 2 -11 102 -32 221 -129 731 -122 681 -111 768 10 78 9
114 -2 58z"/>
<path d="M1967 1325 c3 -27 7 -52 9 -54 8 -9 2 65 -6 84 -6 13 -7 2 -3 -30z"/>
<path d="M1982 1220 c0 -19 2 -27 5 -17 2 9 2 25 0 35 -3 9 -5 1 -5 -18z"/>
<path d="M1773 1160 c0 -25 2 -35 4 -22 2 12 2 32 0 45 -2 12 -4 2 -4 -23z"/>
<path d="M1972 1135 c0 -16 2 -22 5 -12 2 9 2 23 0 30 -3 6 -5 -1 -5 -18z"/>
<path d="M1961 1084 c0 -11 3 -14 6 -6 3 7 2 16 -1 19 -3 4 -6 -2 -5 -13z"/>
<path d="M1763 1025 c0 -22 2 -30 4 -17 2 12 2 30 0 40 -3 9 -5 -1 -4 -23z"/>
<path d="M1951 1044 c0 -11 3 -14 6 -6 3 7 2 16 -1 19 -3 4 -6 -2 -5 -13z"/>
<path d="M1808 959 c-34 -48 -44 -56 -49 -42 -4 11 -7 2 -7 -22 0 -24 3 -33 7
-22 5 15 29 2 153 -83 80 -55 149 -100 152 -100 9 0 88 111 83 116 -2 3 -21
17 -42 33 l-38 28 -25 -28 c-28 -34 -52 -38 -52 -9 0 12 -5 17 -14 14 -21 -8
-29 12 -15 38 9 19 9 21 -2 11 -16 -16 -49 -17 -49 -3 0 6 6 23 14 38 13 26
12 28 -30 59 l-44 32 -42 -60z"/>
<path d="M1940 983 c0 -5 17 -20 38 -35 20 -15 49 -37 65 -49 15 -11 27 -18
27 -16 0 3 -29 28 -65 56 -36 28 -65 48 -65 44z"/>
<path d="M1743 760 c0 -25 2 -35 4 -22 2 12 2 32 0 45 -2 12 -4 2 -4 -23z"/>
<path d="M1733 625 c0 -27 2 -38 4 -22 2 15 2 37 0 50 -2 12 -4 0 -4 -28z"/>
<path d="M1723 495 c0 -22 2 -30 4 -17 2 12 2 30 0 40 -3 9 -5 -1 -4 -23z"/>
<path d="M1713 360 c0 -25 2 -35 4 -22 2 12 2 32 0 45 -2 12 -4 2 -4 -23z"/>
<path d="M775 270 c3 -4 14 -10 25 -13 11 -3 18 -2 15 3 -3 4 -14 10 -25 13
-11 3 -18 2 -15 -3z"/>
<path d="M1700 269 c0 -5 5 -7 10 -4 6 3 10 8 10 11 0 2 -4 4 -10 4 -5 0 -10
-5 -10 -11z"/>
<path d="M653 263 c9 -2 25 -2 35 0 9 3 1 5 -18 5 -19 0 -27 -2 -17 -5z"/>
<path d="M849 228 c13 -15 29 -24 34 -21 7 4 6 8 -3 11 -8 3 -24 12 -35 21
-14 11 -13 8 4 -11z"/>
<path d="M995 230 c10 -11 20 -20 23 -20 3 0 -3 9 -13 20 -10 11 -20 20 -23
20 -3 0 3 -9 13 -20z"/>
<path d="M710 209 c0 -5 5 -7 10 -4 6 3 10 8 10 11 0 2 -4 4 -10 4 -5 0 -10
-5 -10 -11z"/>
<path d="M1619 172 c-5 -13 -9 -25 -9 -28 0 -2 58 -4 129 -4 122 0 129 1 144
23 l16 22 0 -22 c1 -20 6 -23 41 -23 37 0 40 2 40 28 l0 27 -176 0 c-175 0
-176 0 -185 -23z"/>
<path d="M698 163 c-54 -2 -98 -8 -98 -13 0 -6 74 -10 189 -10 190 0 251 5
251 21 0 8 -121 9 -342 2z"/>
</g>
</svg>
