<svg
  width="12"
  height="19"
  viewBox="0 0 12 19"
  fill="none"
  xmlns="http://www.w3.org/2000/svg"
>
  <path
    d="M0.137624 9.30732C0.148296 9.657 0.287038 9.95673 0.575194 10.2265L8.87835 17.8295C9.12381 18.0493 9.41197 18.1692 9.76416 18.1692C10.4792 18.1692 11.0342 17.6497 11.0342 16.9803C11.0342 16.6606 10.8954 16.3608 10.65 16.1311L3.17927 9.30732L10.65 2.48358C10.8954 2.25379 11.0342 1.96406 11.0342 1.63436C11.0342 0.964977 10.4792 0.445454 9.76416 0.445454C9.42264 0.445454 9.12382 0.565344 8.87835 0.785143L0.575194 8.39816C0.276366 8.65792 0.137624 8.95764 0.137624 9.30732Z"
    fill="currentColor"
  />
</svg>
