<svg width="28" height="30" viewBox="0 0 19 20" fill="none" xmlns="http://www.w3.org/2000/svg">
<path d="M13.5865 14.383H13.7613C14.8382 14.383 15.5542 13.7724 15.5542 12.4697V6.98571H12.3855C11.8161 6.98571 11.4608 6.61933 11.4608 6.03197V2.56592H8.42746C7.24906 2.56592 6.60066 3.22889 6.60066 4.4327V4.70603H7.46895C8.35416 4.70603 8.99692 4.9212 9.62277 5.56091L12.8253 8.86412C13.4342 9.4922 13.5865 10.2133 13.5865 11.0798V14.383ZM12.5434 6.20062H15.464C15.4358 6.00289 15.2949 5.82261 15.0806 5.5958L12.8028 3.18818C12.5941 2.96719 12.4137 2.8218 12.222 2.79854L12.2276 5.86913C12.2276 6.10175 12.3179 6.20062 12.5434 6.20062ZM5.64215 17.3722H10.9196C12.1262 17.3722 12.7576 16.7151 12.7576 15.4589V10.9519H8.73756C8.0215 10.9519 7.67193 10.5855 7.67193 9.84695V5.55509H5.64215C4.43556 5.55509 3.80408 6.21806 3.80408 7.47421V15.4589C3.80408 16.7209 4.43556 17.3722 5.64215 17.3722ZM8.80522 10.097H12.6562C12.5885 9.84695 12.4419 9.60851 12.1882 9.341L9.21681 6.22969C8.95745 5.96218 8.73756 5.7819 8.49512 5.7063V9.77716C8.49512 9.98652 8.60224 10.097 8.80522 10.097Z" fill="currentColor"/>
</svg>
