<svg width="23" height="24" viewBox="0 0 23 24" fill="none" xmlns="http://www.w3.org/2000/svg">
<g opacity="0.7">
<path d="M3.79643 16.857C1.35124 14.58 -4.76837e-06 12 -4.76837e-06 12C-4.76837e-06 12 4.3125 3.75 11.5 3.75C12.8806 3.75496 14.2455 4.05514 15.5106 4.632L14.4037 5.7885C13.4731 5.43473 12.4905 5.25252 11.5 5.25C8.4525 5.25 5.92393 7.002 4.071 8.9355C3.17924 9.87104 2.37981 10.8977 1.68474 12C1.76812 12.1305 1.86012 12.2745 1.96506 12.432C2.44662 13.152 3.15818 14.112 4.071 15.0645C4.30818 15.312 4.55543 15.5565 4.81418 15.7935L3.79643 16.857Z" fill="currentColor" />
<path d="M6.76054 13.764C6.43976 12.8278 6.38035 11.8158 6.58923 10.8457C6.79812 9.87558 7.2667 8.98733 7.94047 8.28427C8.61423 7.58121 9.46548 7.09225 10.3951 6.87429C11.3248 6.65632 12.2947 6.71831 13.1919 7.05304L12.0089 8.28754C11.4564 8.20503 10.8931 8.25791 10.3637 8.44199C9.83422 8.62607 9.35311 8.93628 8.95849 9.34806C8.56388 9.75984 8.26658 10.2619 8.09018 10.8143C7.91377 11.3668 7.86309 11.9546 7.94217 12.531L6.76054 13.764ZM10.9911 15.7125L9.80948 16.9455C10.7067 17.2803 11.6766 17.3423 12.6062 17.1243C13.5359 16.9063 14.3872 16.4174 15.0609 15.7143C15.7347 15.0113 16.2033 14.123 16.4122 13.1529C16.621 12.1828 16.5616 11.1708 16.2409 10.2345L15.0578 11.469C15.1369 12.0455 15.0862 12.6333 14.9098 13.1858C14.7334 13.7382 14.4361 14.2403 14.0415 14.652C13.6468 15.0638 13.1657 15.374 12.6363 15.5581C12.1068 15.7422 11.5435 15.7951 10.9911 15.7125Z" fill="currentColor" />
<path d="M18.1844 8.20499C18.4431 8.44499 18.6918 8.68799 18.929 8.93549C19.8208 9.87103 20.6202 10.8977 21.3152 12L21.0349 12.432C20.5534 13.152 19.8418 14.112 18.929 15.0645C17.0761 16.998 14.5461 18.75 11.5 18.75C10.4707 18.75 9.50187 18.5505 8.59625 18.21L7.48938 19.368C8.75447 19.9448 10.1194 20.245 11.5 20.25C18.6875 20.25 23 12 23 12C23 12 21.6502 9.41849 19.2036 7.14299L18.1858 8.20649L18.1844 8.20499ZM3.38387 21.531L20.6339 3.53099L19.6161 2.46899L2.36613 20.469L3.38387 21.531Z" fill="currentColor" />
</g>
</svg>
