<svg width="25" height="25" viewBox="0 0 19 19" fill="none" xmlns="http://www.w3.org/2000/svg">
<path d="M9.50593 14.4422C14.4024 14.4422 17.6945 10.494 17.6945 9.2714C17.6945 8.04878 14.3905 4.10657 9.50593 4.10657C4.68105 4.10657 1.30542 8.04878 1.30542 9.2714C1.30542 10.494 4.66912 14.4422 9.50593 14.4422ZM9.50593 13.2732C5.70089 13.2732 2.68907 10.1064 2.68907 9.2714C2.68907 8.57361 5.70089 5.27551 9.50593 5.27551C13.2931 5.27551 16.3109 8.57361 16.3109 9.2714C16.3109 10.1064 13.2931 13.2732 9.50593 13.2732ZM9.50593 12.4741C11.2832 12.4741 12.7086 11.0129 12.7086 9.2714C12.7086 7.48816 11.2832 6.07469 9.50593 6.07469C7.71673 6.07469 6.28537 7.48816 6.29133 9.2714C6.30326 11.0129 7.71673 12.4741 9.50593 12.4741ZM9.49997 10.3032C8.92742 10.3032 8.46223 9.83798 8.46223 9.2714C8.46223 8.70482 8.92742 8.23962 9.49997 8.23962C10.0725 8.23962 10.5377 8.70482 10.5377 9.2714C10.5377 9.83798 10.0725 10.3032 9.49997 10.3032Z" fill="currentColor"/>
</svg>
