<svg
  width="34"
  height="35"
  viewBox="0 0 34 35"
  fill="none"
  xmlns="http://www.w3.org/2000/svg"
>
  <path
    d="M5.52717 26.6597C7.12803 26.6597 8.20595 26.0513 9.16647 24.9521L11.0662 22.7429C11.333 22.4227 11.6105 22.284 11.9413 22.284H22.0481C22.3789 22.284 22.6564 22.4227 22.9232 22.7429L24.8229 24.9521C25.7834 26.0513 26.872 26.6597 28.4622 26.6597C30.9276 26.6597 32.6351 25.0268 32.6351 22.4227C32.6351 21.3021 32.3897 20.0321 31.9735 18.6233C31.3118 16.4141 30.1698 13.4365 29.0812 11.142C28.1527 9.19957 27.6511 8.24972 25.3032 7.7161C23.2434 7.24651 20.4259 6.93701 17 6.93701C13.5742 6.93701 10.746 7.24651 8.68621 7.7161C6.34895 8.24972 5.83667 9.19957 4.90817 11.142C3.81958 13.4365 2.67763 16.4141 2.01594 18.6233C1.59971 20.0321 1.35425 21.3021 1.35425 22.4227C1.35425 25.0268 3.06184 26.6597 5.52717 26.6597ZM8.28066 14.7172C8.28066 14.1409 8.65419 13.7674 9.25185 13.7674H11.0448V12.0384C11.0448 11.4408 11.4077 11.0566 11.9947 11.0566C12.571 11.0566 12.9338 11.4408 12.9338 12.0384V13.7674H14.6201C15.2711 13.7674 15.666 14.1409 15.666 14.7172C15.666 15.3149 15.2711 15.6884 14.6201 15.6884H12.9338V17.428C12.9338 18.0257 12.571 18.4099 11.9947 18.4099C11.4077 18.4099 11.0448 18.0257 11.0448 17.428V15.6884H9.25185C8.65419 15.6884 8.28066 15.3149 8.28066 14.7172ZM21.9947 13.0416C21.9947 12.1452 22.6884 11.4515 23.5743 11.4515C24.4707 11.4515 25.1538 12.1452 25.1538 13.0416C25.1538 13.9381 24.4707 14.6212 23.5743 14.6212C22.6884 14.6212 21.9947 13.9381 21.9947 13.0416ZM18.825 16.254C18.825 15.3576 19.5187 14.6639 20.4045 14.6639C21.2904 14.6639 21.9841 15.3576 21.9841 16.254C21.9841 17.1399 21.2904 17.8229 20.4045 17.8229C19.5187 17.8229 18.825 17.1399 18.825 16.254Z"
    fill="currentColor"
  />
</svg>
