<svg
  width="34"
  height="35"
  viewBox="0 0 34 35"
  fill="none"
  xmlns="http://www.w3.org/2000/svg"
>
  <path
    d="M3.94763 16.2542C3.94763 16.8092 4.37453 17.2894 5.05756 17.2894C5.38841 17.2894 5.68724 17.108 5.95405 16.8945L16.5411 8.00441C16.8399 7.74827 17.1814 7.74827 17.4803 8.00441L28.0567 16.8945C28.3128 17.108 28.6116 17.2894 28.9425 17.2894C29.5721 17.2894 30.0524 16.8945 30.0524 16.2755C30.0524 15.9127 29.9137 15.6245 29.6362 15.3897L26.6372 12.871V8.43131C26.6372 7.95105 26.3277 7.65222 25.8475 7.65222H24.3747C23.9051 7.65222 23.5849 7.95105 23.5849 8.43131V10.299L18.5262 6.05136C17.5977 5.27227 16.4237 5.27227 15.4952 6.05136L4.37453 15.3897C4.08637 15.6245 3.94763 15.9447 3.94763 16.2542ZM7.41617 25.8487C7.41617 27.3856 8.37669 28.3141 9.96688 28.3141H24.0438C25.6233 28.3141 26.5945 27.3856 26.5945 25.8487V17.7377L17.6617 10.2563C17.2455 9.89343 16.7439 9.90411 16.3383 10.2563L7.41617 17.7377V25.8487ZM19.8069 26.3076H14.2038V19.4773C14.2038 18.9757 14.5347 18.6555 15.0363 18.6555H18.9851C19.4867 18.6555 19.8069 18.9757 19.8069 19.4773V26.3076Z"
    fill="currentColor"
  />
</svg>
