<svg width="18" height="16" viewBox="0 0 18 16" fill="none" xmlns="http://www.w3.org/2000/svg">
<path d="M17.3145 8.14551C17.3145 7.87305 17.2002 7.60938 16.998 7.41602L11.2236 1.6416C10.9951 1.42188 10.7578 1.3252 10.5117 1.3252C9.94922 1.3252 9.54492 1.7207 9.54492 2.25684C9.54492 2.53809 9.65918 2.77539 9.83496 2.95117L11.8125 4.95508L14.3613 7.28418L12.3223 7.16113H1.66992C1.08105 7.16113 0.676758 7.56543 0.676758 8.14551C0.676758 8.7168 1.08105 9.12109 1.66992 9.12109H12.3223L14.3613 8.99805L11.8125 11.3271L9.83496 13.3311C9.65918 13.5068 9.54492 13.7441 9.54492 14.0254C9.54492 14.5615 9.94922 14.957 10.5117 14.957C10.7578 14.957 10.9951 14.8604 11.2061 14.6582L16.998 8.86621C17.2002 8.67285 17.3145 8.40918 17.3145 8.14551Z" fill="currentColor"/>
</svg>
