<svg width="18" height="18" viewBox="0 0 18 18" fill="none" xmlns="http://www.w3.org/2000/svg">
  <g>
    <path d="M8.65385 11.8853C8.844 11.8796 9.01785 11.8062 9.1591 11.6479L13.288 7.25216C13.4076 7.12786 13.4727 6.96966 13.4727 6.7832C13.4727 6.4103 13.1902 6.11084 12.8317 6.11084C12.6578 6.11084 12.4894 6.18429 12.3645 6.31424L8.65929 10.275L4.94325 6.31424C4.8183 6.18994 4.65531 6.11084 4.47603 6.11084C4.11747 6.11084 3.83496 6.4103 3.83496 6.7832C3.83496 6.96966 3.90015 7.12786 4.01968 7.25216L8.15404 11.6479C8.30072 11.8062 8.46371 11.8853 8.65385 11.8853Z" fill="currentColor" />
  </g>
</svg>
