<svg width="28" height="30" viewBox="0 0 19 20" fill="none" xmlns="http://www.w3.org/2000/svg">
<path d="M15.2385 15.7029C15.4866 15.8715 15.8193 15.7959 15.9997 15.5168C16.992 13.9815 17.5897 12.074 17.5897 9.98043C17.5897 7.88103 16.9807 5.97935 15.9997 4.43824C15.8193 4.15328 15.4866 4.08349 15.2385 4.25214C14.9679 4.43243 14.9284 4.77554 15.1145 5.08376C15.9771 6.43878 16.5128 8.11946 16.5128 9.98043C16.5128 11.8298 15.9771 13.5221 15.1145 14.8713C14.9284 15.1795 14.9679 15.5226 15.2385 15.7029ZM7.9426 15.1911C8.36547 15.1911 8.67558 14.8655 8.67558 14.4351V5.55482C8.67558 5.11866 8.36547 4.76973 7.93133 4.76973C7.64377 4.76973 7.43516 4.89185 7.13069 5.20007L4.7739 7.47394C4.74007 7.50883 4.69496 7.52628 4.64422 7.52628H3.04859C2.21412 7.52628 1.76306 8.00315 1.76306 8.90456V11.0679C1.76306 11.9693 2.21412 12.4462 3.04859 12.4462H4.64422C4.69496 12.4462 4.73443 12.4637 4.7739 12.4985L7.13069 14.7899C7.4126 15.069 7.64941 15.1911 7.9426 15.1911ZM12.955 14.1269C13.2144 14.2897 13.5301 14.2316 13.7105 13.9582C14.4435 12.8882 14.872 11.4518 14.872 9.97461C14.872 8.49747 14.4492 7.05522 13.7105 5.99098C13.5301 5.71765 13.2144 5.65368 12.955 5.82233C12.6844 5.9968 12.6449 6.34573 12.8479 6.65395C13.4456 7.56117 13.7895 8.74172 13.7895 9.97461C13.7895 11.2017 13.4399 12.3822 12.8479 13.2953C12.6506 13.6035 12.6844 13.9466 12.955 14.1269ZM10.6828 12.5683C10.9252 12.7312 11.241 12.673 11.4158 12.4171C11.8725 11.7891 12.1431 10.8993 12.1431 9.97461C12.1431 9.04995 11.8725 8.16599 11.4158 7.5321C11.241 7.27621 10.9252 7.21806 10.6828 7.38671C10.4065 7.5728 10.3558 7.91592 10.5757 8.25322C10.8858 8.71265 11.0606 9.32909 11.0606 9.97461C11.0606 10.6201 10.8858 11.2308 10.5757 11.696C10.3558 12.0333 10.4065 12.3764 10.6828 12.5683Z" fill="currentColor"/>
</svg>
